<svg width="25" height="25" viewBox="0 0 25 25" fill="none" xmlns="http://www.w3.org/2000/svg">
<path d="M2.5 11.5H8.5C8.76522 11.5 9.01957 11.3946 9.20711 11.2071C9.39464 11.0196 9.5 10.7652 9.5 10.5V4.5C9.5 4.23478 9.39464 3.98043 9.20711 3.79289C9.01957 3.60536 8.76522 3.5 8.5 3.5H2.5C2.23478 3.5 1.98043 3.60536 1.79289 3.79289C1.60536 3.98043 1.5 4.23478 1.5 4.5V10.5C1.5 10.7652 1.60536 11.0196 1.79289 11.2071C1.98043 11.3946 2.23478 11.5 2.5 11.5ZM3.5 5.5H7.5V9.5H3.5V5.5ZM8.5 21.5C8.76522 21.5 9.01957 21.3946 9.20711 21.2071C9.39464 21.0196 9.5 20.7652 9.5 20.5V14.5C9.5 14.2348 9.39464 13.9804 9.20711 13.7929C9.01957 13.6054 8.76522 13.5 8.5 13.5H2.5C2.23478 13.5 1.98043 13.6054 1.79289 13.7929C1.60536 13.9804 1.5 14.2348 1.5 14.5V20.5C1.5 20.7652 1.60536 21.0196 1.79289 21.2071C1.98043 21.3946 2.23478 21.5 2.5 21.5H8.5ZM3.5 15.5H7.5V19.5H3.5V15.5ZM23.5 7.5C23.5 7.76522 23.3946 8.01957 23.2071 8.20711C23.0196 8.39464 22.7652 8.5 22.5 8.5H12.5C12.2348 8.5 11.9804 8.39464 11.7929 8.20711C11.6054 8.01957 11.5 7.76522 11.5 7.5C11.5 7.23478 11.6054 6.98043 11.7929 6.79289C11.9804 6.60536 12.2348 6.5 12.5 6.5H22.5C22.7652 6.5 23.0196 6.60536 23.2071 6.79289C23.3946 6.98043 23.5 7.23478 23.5 7.5ZM23.5 17.5C23.5 17.7652 23.3946 18.0196 23.2071 18.2071C23.0196 18.3946 22.7652 18.5 22.5 18.5H12.5C12.2348 18.5 11.9804 18.3946 11.7929 18.2071C11.6054 18.0196 11.5 17.7652 11.5 17.5C11.5 17.2348 11.6054 16.9804 11.7929 16.7929C11.9804 16.6054 12.2348 16.5 12.5 16.5H22.5C22.7652 16.5 23.0196 16.6054 23.2071 16.7929C23.3946 16.9804 23.5 17.2348 23.5 17.5Z" fill="#007FFF"/>
</svg>
